<svg xmlns="http://www.w3.org/2000/svg" viewBox="0 0 1008.94 284.85"><defs><style>.cls-1{isolation:isolate;}.cls-2,.cls-6{stroke:#000;stroke-miterlimit:10;}.cls-3,.cls-4{fill:#ab3f97;}.cls-3{opacity:0.5;}.cls-5{fill:#231f20;}.cls-6{fill:#a3762c;}.cls-7{fill:#7a2169;mix-blend-mode:darken;}</style></defs><g class="cls-1"><g id="Layer_1" data-name="Layer 1"><path class="cls-2" d="M2.14,257.68c31.61,13,204.5,12,227.72,0-4.69-6.31-55.37-64.41-107.73-63C63.2,196.2,2.14,257.68,2.14,257.68Z"/><path class="cls-3" d="M178.05,75.15c4.33-11.54,8.66-26,4.91-44.4-2.18-10.67-6.16-21.36-14.11-28.81-.94,7.88-7.24,13.88-13,19.31-4.58,4.29-9.32,9.2-11.21,15a111.66,111.66,0,0,0-64.1-.32c-5.34-7.67-12.64-11.8-19.34-18.48C57.85,14.12,55.53,7.41,54,3c-1.16,3.08-8.66,20.2-10.1,28.86-1.51,9.06-2.89,28.86,2.88,39-6.61,8-4,24.36,0,31.75,8.66,15.87,20.21,20.2,40.41,27.42C69.39,197.6,46.88,275.34,81.37,278.62c30.3,2.89,30-20.47,46.17-18.76s11.94,15.87,31.75,15.87c16.14,0,23.09-15.51,23.09-36.07,0-30.64-14.58-66.19-36.08-109.67C170.84,124.22,188.15,95.35,178.05,75.15Z"/><path class="cls-4" d="M173.72,86a30.66,30.66,0,0,0-2.61-12.28c5.16-7.61,7.19-17.19,7.06-26.45-.15-10.57-2.84-20.91-5.51-31.12-.84,5.11-4.62,9.26-8.81,12.31s-8.92,5.31-13,8.53c-3.87,3.08-7.16,7.37-7.6,12.26A83.27,83.27,0,0,0,112,43.34a84.23,84.23,0,0,0-29.26,5.09c-.7-4.56-3.85-8.55-7.51-11.47-4.05-3.22-8.78-5.48-13-8.53s-8-7.2-8.81-12.31C50.81,26.33,48.12,36.67,48,47.24c-.12,8.51,1.59,17.3,5.87,24.57A31,31,0,0,0,50.34,86c0,18,16.15,33.38,39,39.64h0c-16.59,59.2-34,146.25-3.63,142.41s26-35.59,39-34.14,12.92,30.3,28.86,30.3c13,0,20.2-14.43,20.2-31.75,0-29.43-7.53-62.38-31.75-106.78h0C160.91,118.38,173.72,102,173.72,86Z"/><path d="M175.22,86a33.71,33.71,0,0,0-2.81-13v1.52c8.83-13.2,8.22-29.82,5.11-44.73-1-4.71-2.2-9.36-3.42-14-.35-1.36-2.62-1.5-2.89,0C169.77,23.79,162,28,155.61,31.91s-13,9.21-13.83,17.31l1.9-1.45a87,87,0,0,0-48.27-4.38,79.72,79.72,0,0,0-13,3.6l1.85,1c-1.33-7.83-8.13-12.73-14.45-16.59-6.15-3.76-13.46-8-14.84-15.73-.27-1.5-2.54-1.36-2.89,0-4.83,18.45-9.73,39.24.51,56.85V71.05a32.74,32.74,0,0,0-.16,29.57C56.58,109,64,115.55,72,120.15a73.91,73.91,0,0,0,16.88,6.91l-1-1.85c-1.32,3.76-2.15,7.79-3.17,11.64q-1.6,6.06-3.12,12.13-3.13,12.63-5.83,25.36c-3.36,16-6.23,32.16-7.55,48.46a148.21,148.21,0,0,0-.47,20,56,56,0,0,0,2.57,15.36c1.28,3.68,3.25,7.26,6.55,9.49,3.79,2.56,8.29,2.18,12.55,1.28a31.84,31.84,0,0,0,16.75-9.24c3.63-3.88,6.19-8.54,8.5-13.28,1.69-3.45,3.24-7.53,6-9.93a7.65,7.65,0,0,1,1.55-.88,4.3,4.3,0,0,1,2.12-.23,8.37,8.37,0,0,1,5.23,2.78c3.78,3.94,5.72,9.53,8.15,14.32s5.54,10.09,10.79,12.26c6.12,2.53,13.34,0,17.78-4.55,5.61-5.8,7.88-14.19,8.64-22,.73-7.48.18-15.21-.58-22.66a179.1,179.1,0,0,0-3.84-22.88c-4.3-18.37-11.31-36-19.6-52.94-2.44-5-5-9.91-7.66-14.78l-.9,2.2c13.76-5.34,26.18-15.92,31-30.2A34.67,34.67,0,0,0,175.22,86a1.5,1.5,0,0,0-3,0c-.07,13.31-8.82,25.13-19.47,32.37a56.15,56.15,0,0,1-11.17,5.87,1.54,1.54,0,0,0-.9,2.21c9.53,17.49,17.92,35.7,23.68,54.8a177.73,177.73,0,0,1,7.74,44.88c.3,8.06.11,16.18-2.87,23.8-2.39,6.11-7.12,12-14.08,12.71a10.94,10.94,0,0,1-7.32-1.64,18,18,0,0,1-5-5.54c-3-4.79-5-10.19-7.88-15-2.44-4-6-8.08-11.16-8-3.82,0-6.43,2.8-8.29,5.85-2.32,3.82-4,8-6.16,11.92a32.73,32.73,0,0,1-10.71,11.94,29.64,29.64,0,0,1-8.94,3.73,20.82,20.82,0,0,1-7.44.78,9.39,9.39,0,0,1-4-1.59,10.2,10.2,0,0,1-1.64-1.47,11.6,11.6,0,0,1-1.43-1.91c-2.25-3.61-3.23-8-3.84-12.23a98.79,98.79,0,0,1-.67-17.62c.53-15.29,2.91-30.51,5.76-45.53,3.13-16.55,7-33,11.34-49.24,1-3.63,1.75-7.42,3-11a1.52,1.52,0,0,0-1-1.85c-14.11-3.9-28.72-12.1-35.13-25.9a29.25,29.25,0,0,1,.16-24.88A5,5,0,0,0,55.32,72a2.77,2.77,0,0,0-.61-1.7A36.5,36.5,0,0,1,51.93,64a48.25,48.25,0,0,1-2.42-13.48C49,38.93,52,27.6,54.93,16.52H52C53.38,24.05,59.88,28.9,66,32.65c6.35,3.91,14,8.12,15.35,16.18a1.49,1.49,0,0,0,1.84,1.05,84.68,84.68,0,0,1,47.52-3,78.56,78.56,0,0,1,12.19,3.79c1,.41,1.81-.59,1.9-1.44.84-8,8.82-12.56,15-16.34s12.95-8.67,14.32-16.36h-2.89c4.6,17.56,9.68,37.86-.26,54.62-.64,1.09-1.62,2-1.14,3.31s.94,2.42,1.3,3.68A29.28,29.28,0,0,1,172.22,86,1.5,1.5,0,0,0,175.22,86Z"/><circle class="cls-5" cx="86.42" cy="78.76" r="12.27"/><circle class="cls-5" cx="142.7" cy="78.76" r="7.94"/><path d="M118.33,126c-13.87-1.76-25.3-4.17-37,4-6,4.22-14.62,13-18.76,18.76C55.26,159,45.89,172.13,39.37,182.86c-14.61,24.08-28.57,48.7-37.23,75-1.45,4.39,8.71,4,17.56,1.91,18.39-4.25,47.79,1.71,61.67-10.05,14.87-12.6,10.66-41.65,17.81-58.94,8.54-20.63,21.15-38.15,21.15-63.23C120.33,125.72,119.12,126.09,118.33,126Z"/><path d="M118.33,124.48c-7.06-.9-14.22-2.2-21.36-1.61a34.49,34.49,0,0,0-18.83,7.68A95.38,95.38,0,0,0,63.77,144.8c-4.55,5.55-8.52,11.65-12.62,17.53-9.25,13.26-17.67,27-25.62,41.09a328.38,328.38,0,0,0-21.62,45c-.73,1.93-1.44,3.88-2.11,5.83-.49,1.41-1.34,3-1.3,4.57.07,2.29,2.34,3.37,4.3,3.72,6.42,1.14,12.79-1,19.07-2,12.45-1.91,25.18-.65,37.68-2.16,5.72-.7,11.52-1.87,16.62-4.64a26.63,26.63,0,0,0,10.94-11.66c5.38-10.69,5.86-23.18,7.61-34.81a68.57,68.57,0,0,1,4.06-16.41c2.73-6.57,6-12.92,9-19.33,6.2-13,11.43-26.49,12-41.08.06-1.49.44-3.6-.52-4.89-.75-1-1.8-1-2.92-1.08-1.93-.16-1.91,2.84,0,3,.17,0,.68,0,.7,0-.5-.13-.07-.26-.2.09a2.43,2.43,0,0,0,0,.66l0,1.54c-.06,1.86-.18,3.72-.38,5.57a74.51,74.51,0,0,1-1.9,10.46,115.6,115.6,0,0,1-6.87,18.92c-2.78,6.15-5.85,12.16-8.67,18.29a77.74,77.74,0,0,0-5.91,16.37c-2.4,11.29-2.59,23-5.85,34.11-1.46,5-3.62,9.91-7.29,13.67s-8.52,5.79-13.55,7c-11.79,2.82-24.18,1.89-36.19,2.57-2.84.16-5.68.41-8.49.82-3,.43-6,1.23-9,1.7a29.36,29.36,0,0,1-9,.38,5.4,5.4,0,0,1-2.14-.74.25.25,0,0,1-.1-.24,16.83,16.83,0,0,1,.75-2.32,285.16,285.16,0,0,1,19.59-43.66C31.23,199,39.1,185.5,47.75,172.59c4.22-6.29,8.59-12.48,13-18.64,1.79-2.51,3.52-5.06,5.49-7.43,2.1-2.52,4.35-4.93,6.68-7.24,4.58-4.54,9.6-9.18,15.71-11.52s12.76-2.27,19.24-1.6c3.5.37,7,.88,10.48,1.32C120.24,127.73,120.22,124.73,118.33,124.48Z"/><path d="M113.67,126c12.84,0,23.86-4.91,35.52,3.27,6,4.22,14.62,15.15,18.76,20.94,7.35,10.28,18.16,21.94,24.68,32.67,14.61,24.08,28.57,48.7,37.23,75,1.45,4.39-8.71,4-17.56,1.91-18.39-4.25-47.79,1.71-61.67-10.05-14.87-12.6-10.66-41.65-17.81-58.94-8.54-20.63-21.15-38.15-21.15-63.23C111.67,125.72,112.87,126,113.67,126Z"/><path d="M113.67,127.48c6.86,0,13.62-1.57,20.47-1.45a25.69,25.69,0,0,1,17.42,7.11,109.88,109.88,0,0,1,12.29,14c4,5.27,7.92,10.61,12.08,15.77,4.73,5.87,9.54,11.7,13.69,18,4.35,6.59,8.25,13.53,12.19,20.37a350.45,350.45,0,0,1,21.54,43.19q2.24,5.55,4.19,11.2c.29.87.65,1.74.88,2.62.1.38.07.48.06.5s-.17.2-.47.36a5,5,0,0,1-1.35.41,26,26,0,0,1-8.76-.22c-3.07-.44-6.06-1.26-9.13-1.72-12-1.82-24.2-.84-36.25-2-5.47-.54-11.15-1.48-16.13-3.91a23.69,23.69,0,0,1-10.57-10.45c-2.59-4.87-3.91-10.35-4.9-15.75-1.06-5.81-1.69-11.68-2.52-17.53a80.08,80.08,0,0,0-3.56-16.05c-2.26-6.19-5.32-12.12-8.18-18-6-12.33-11.68-25-13.1-38.72-.18-1.78-.3-3.57-.36-5.36,0-.78-.11-1.78,0-2.46,0,.06-.38.19-.13.14a4.68,4.68,0,0,1,.65,0c1.93,0,1.93-3,0-3a3.21,3.21,0,0,0-2.92,1.06c-1,1.35-.58,3.56-.52,5.12a77,77,0,0,0,1.35,11.43,101.2,101.2,0,0,0,6.47,20.25c2.76,6.51,6,12.81,9,19.19,2.71,5.71,5.37,11.4,6.78,17.59,2.68,11.77,2.72,24,6.22,35.65,1.6,5.32,4,10.52,7.93,14.53s9,6.27,14.25,7.61c12.34,3.13,25.36,2.1,38,2.85a83,83,0,0,1,8.91.93c3.29.56,6.5,1.39,9.82,1.79s13.55,1.5,12.55-4.42a32.38,32.38,0,0,0-1.68-5.13q-1-2.93-2.15-5.82-2.23-5.78-4.74-11.43c-3.39-7.7-7.14-15.24-11.11-22.67s-8.21-14.82-12.54-22.1a196.9,196.9,0,0,0-13-19.76c-4.82-6.28-10-12.31-14.74-18.63-3.83-5.07-7.5-10.21-11.67-15s-8.8-9.71-14.82-12.28c-6.62-2.83-13.68-2.3-20.66-1.53a98.17,98.17,0,0,1-10.7.79A1.5,1.5,0,0,0,113.67,127.48Z"/><ellipse class="cls-6" cx="115.28" cy="138.65" rx="6.61" ry="7.94"/><path d="M67.67,57.72c-.51-1.88-2-3.07-3.16-4.51a17.22,17.22,0,0,1-2.67-4.53,18.29,18.29,0,0,1-1-10.47c.39-1.88-2.5-2.68-2.9-.79a21.22,21.22,0,0,0,3.31,16.47,22.46,22.46,0,0,0,1.85,2.28,5.92,5.92,0,0,1,1.65,2.35,1.5,1.5,0,0,0,2.89-.8Z"/><path d="M160.53,58.23c-.3-1.73,2.14-3,3.24-3.92a12.81,12.81,0,0,0,3.43-4.07A13.58,13.58,0,0,0,168.27,40c-.55-1.85-3.45-1.06-2.89.8a10.61,10.61,0,0,1-1.6,9.27c-1.08,1.48-2.63,2.37-4,3.56a5.79,5.79,0,0,0-2.15,5.4,1.5,1.5,0,0,0,2.89-.8Z"/><path class="cls-7" d="M117.64,43.52c21.45,10,41.65,48.95,24.33,83.58,21.65-14.43,38-27.91,29.14-53.41,9.55-21.61,8.38-45.37,3-53.34C164.7,28.94,144,36.19,142.7,49.9Z"/><path class="cls-7" d="M131.75,238.36C122,197.19,105,156.19,105,156.19s20-18,52.13,62.54c13.62,34.16,14.88,33.62,8.16,39.9s-19.26,6-23.81-2.54S131.75,238.36,131.75,238.36Z"/><path class="cls-2" d="M247.85,257.68c38.76,20.19,194.76,6.63,227.73,3-4.69-6.31-55.37-67.41-107.74-66C308.91,196.2,247.85,257.68,247.85,257.68Z"/><path class="cls-3" d="M424.76,75.15c4.33-11.54,9.66-26,5.91-44.4-2.17-10.67-4.16-20.36-12.1-27.81-.95,7.88-11.25,11.88-17.05,17.31-4.58,4.29-12.31,12.2-14.21,18-9.93-3.11-17.95-5.86-29.57-5.86-11.21,0-18.87,1.63-28.53,4.54-5.34-7.67-13.64-12.8-20.33-19.48-3.32-3.31-7.64-11-9.22-15.43-1.15,3.08-10.66,21.2-12.1,29.86-1.51,9.06-1.88,29.86,3.89,40-6.62,8-3,25.36,1,32.75,8.66,15.87,20.2,20.2,40.4,27.42-17.75,67.61-40.26,142.35-5.77,145.63,30.3,2.89,29-20.47,45.18-18.76S385.2,274.73,405,274.73c16.14,0,23.09-14.51,23.09-35.07C428.09,209,413.51,174.47,392,131,416.55,125.22,431.94,98.09,424.76,75.15Z"/><path class="cls-4" d="M419.43,86a30.66,30.66,0,0,0-2.61-12.28C422,66.08,424,56.5,423.88,47.24c-.14-10.57-2.84-20.91-5.51-31.12-.83,5.11-4.62,9.26-8.81,12.31s-8.92,5.31-13,8.53c-3.87,3.08-7.16,7.37-7.6,12.26a83.24,83.24,0,0,0-31.25-5.88,84.18,84.18,0,0,0-29.25,5.09c-.7-4.56-3.85-8.55-7.52-11.47-4.05-3.22-8.78-5.48-13-8.53s-8-7.2-8.8-12.31c-2.68,10.21-5.37,20.55-5.52,31.12-.12,8.51,1.59,17.3,5.88,24.57A31,31,0,0,0,296.05,86c0,18,16.15,33.38,39,39.64h0c-16.6,59.2-34,146.25-3.64,142.41s26-35.59,39-34.14,12.92,30.3,28.86,30.3c13,0,20.2-14.43,20.2-31.75,0-29.43-7.52-62.38-31.74-106.78h0C406.62,118.38,419.43,102,419.43,86Z"/><path d="M420.93,86a33.71,33.71,0,0,0-2.81-13v1.52c8.83-13.2,8.22-29.82,5.11-44.73-1-4.71-2.2-9.36-3.42-14-.35-1.36-2.62-1.5-2.89,0-1.43,8.07-9.24,12.27-15.6,16.19s-13,9.21-13.83,17.31l1.9-1.45a87,87,0,0,0-48.27-4.38,79.33,79.33,0,0,0-13,3.6l1.84,1c-1.32-7.83-8.13-12.73-14.44-16.59s-13.47-8-14.85-15.73c-.26-1.5-2.53-1.36-2.89,0-4.83,18.45-9.73,39.24.51,56.85V71.05a32.71,32.71,0,0,0-.15,29.57c4.19,8.4,11.57,14.93,19.63,19.53a74.1,74.1,0,0,0,16.88,6.91l-1.05-1.85c-1.32,3.76-2.15,7.79-3.17,11.64q-1.61,6.06-3.11,12.13-3.15,12.63-5.84,25.36a390.83,390.83,0,0,0-7.55,48.46,148.21,148.21,0,0,0-.47,20A56.34,56.34,0,0,0,316,258.15c1.28,3.68,3.25,7.26,6.55,9.49,3.79,2.56,8.3,2.18,12.56,1.28a31.78,31.78,0,0,0,16.74-9.24c3.63-3.88,6.19-8.54,8.51-13.28,1.68-3.45,3.24-7.53,6.05-9.93a7.57,7.57,0,0,1,1.54-.88,4.34,4.34,0,0,1,2.13-.23,8.37,8.37,0,0,1,5.22,2.78c3.78,3.94,5.72,9.53,8.15,14.32s5.55,10.09,10.8,12.26c6.12,2.53,13.34,0,17.77-4.55,5.62-5.8,7.88-14.19,8.64-22,.73-7.48.18-15.21-.58-22.66a179.07,179.07,0,0,0-3.83-22.88c-4.31-18.37-11.32-36-19.61-52.94Q393,132.21,389,124.9l-.89,2.2c13.75-5.34,26.18-15.92,31-30.2A34.67,34.67,0,0,0,420.93,86a1.5,1.5,0,0,0-3,0c-.07,13.31-8.81,25.13-19.46,32.37a56.23,56.23,0,0,1-11.18,5.87,1.54,1.54,0,0,0-.9,2.21c9.53,17.49,17.92,35.7,23.69,54.8a178.62,178.62,0,0,1,7.74,44.88c.3,8.06.1,16.18-2.88,23.8-2.39,6.11-7.11,12-14.08,12.71a11,11,0,0,1-7.32-1.64,17.89,17.89,0,0,1-5-5.54c-3-4.79-5-10.19-7.89-15-2.44-4-6-8.08-11.15-8-3.83,0-6.44,2.8-8.3,5.85-2.32,3.82-3.95,8-6.16,11.92a32.79,32.79,0,0,1-10.7,11.94,29.7,29.7,0,0,1-9,3.73,20.79,20.79,0,0,1-7.44.78,9.49,9.49,0,0,1-4-1.59,10.65,10.65,0,0,1-1.64-1.47,11.6,11.6,0,0,1-1.43-1.91c-2.25-3.61-3.22-8-3.84-12.23a99.74,99.74,0,0,1-.67-17.62c.53-15.29,2.91-30.51,5.76-45.53,3.14-16.55,7-33,11.34-49.24,1-3.63,1.75-7.42,3-11a1.52,1.52,0,0,0-1.05-1.85c-14.1-3.9-28.71-12.1-35.13-25.9a29.11,29.11,0,0,1-1.2-21.51,30.81,30.81,0,0,1,1.36-3.37A5,5,0,0,0,301,72a2.71,2.71,0,0,0-.61-1.7A37.28,37.28,0,0,1,297.64,64a48.61,48.61,0,0,1-2.41-13.48c-.49-11.56,2.51-22.89,5.41-34h-2.89c1.34,7.53,7.84,12.38,13.95,16.13,6.34,3.91,14,8.12,15.34,16.18a1.5,1.5,0,0,0,1.84,1.05,84.71,84.71,0,0,1,47.53-3,78.78,78.78,0,0,1,12.18,3.79c1,.41,1.81-.59,1.9-1.44.85-8,8.83-12.56,15-16.34s13-8.67,14.32-16.36h-2.89c4.6,17.56,9.69,37.86-.26,54.62-.64,1.09-1.62,2-1.13,3.31s.94,2.42,1.3,3.68a29.27,29.27,0,0,1,1.1,7.84A1.5,1.5,0,0,0,420.93,86Z"/><circle class="cls-5" cx="332.13" cy="78.76" r="10.31"/><circle class="cls-5" cx="388.41" cy="78.76" r="9.28"/><path d="M364,126c-13.87-1.76-25.3-4.17-37,4-6,4.22-14.62,13-18.76,18.76C301,159,291.6,172.13,285.08,182.86c-14.6,24.08-28.57,48.7-37.23,75-1.44,4.39,8.72,4,17.57,1.91,18.38-4.25,47.78,1.71,61.66-10.05,14.87-12.6,12.26-41.07,17.81-58.94C352,168.07,366,152.67,366,127.59,366,125.72,364.83,126.09,364,126Z"/><path d="M364,124.48c-7.05-.9-14.22-2.2-21.36-1.61a34.52,34.52,0,0,0-18.83,7.68,95.31,95.31,0,0,0-14.36,14.25c-4.6,5.6-8.61,11.77-12.75,17.71-9.2,13.21-17.59,26.9-25.5,40.91a328.44,328.44,0,0,0-21.7,45.19q-1.09,2.91-2.11,5.84c-.47,1.37-1.29,2.95-1.21,4.43.13,2.31,2.45,3.32,4.43,3.66,6.43,1.09,12.79-1.07,19.09-2,12.46-1.89,25.19-.63,37.69-2.16,5.76-.71,11.6-1.91,16.72-4.77a27.93,27.93,0,0,0,11-11.75c5.63-10.82,6.47-23.52,8.16-35.39a96.66,96.66,0,0,1,3.7-17.18,170.76,170.76,0,0,1,8.23-19.42,191.68,191.68,0,0,0,8.15-18.73,71.76,71.76,0,0,0,4.13-20.75c.07-1.47.43-3.54-.52-4.81-.74-1-1.8-1-2.92-1.08-1.92-.16-1.91,2.84,0,3,.18,0,.68,0,.71,0-.5-.13-.08-.26-.21.09a2.36,2.36,0,0,0,0,.65l0,1.5c-.06,1.8-.19,3.59-.4,5.38a65,65,0,0,1-2,10,116.09,116.09,0,0,1-7,18c-5.4,11.53-11.28,22.94-13.61,35.57-2.12,11.49-2.59,23.35-6.1,34.55-1.58,5.06-3.89,10-7.62,13.87s-8.38,5.81-13.37,7c-11.82,2.91-24.28,2-36.34,2.63-2.84.16-5.68.41-8.5.8-3,.43-6,1.22-9,1.7a30.77,30.77,0,0,1-9,.44,5.16,5.16,0,0,1-2.29-.8s-.09-.05-.08-.24a13.36,13.36,0,0,1,.67-2.08,284,284,0,0,1,19.55-43.66c7.43-13.74,15.34-27.32,24-40.3,4.18-6.23,8.51-12.36,12.86-18.47,1.83-2.57,3.6-5.18,5.62-7.6s4.34-4.93,6.67-7.24c4.58-4.54,9.6-9.18,15.72-11.52s12.75-2.27,19.23-1.6c3.5.37,7,.88,10.48,1.32C366,127.73,365.93,124.73,364,124.48Z"/><path d="M359.39,126c12.83,0,23.85-4.91,35.51,3.27,6,4.22,14.62,15.15,18.76,20.94,7.35,10.28,18.17,21.94,24.68,32.67,14.61,24.08,28.58,48.7,37.24,75,1.44,4.39-8.72,4-17.57,1.91-18.39-4.25-47.79,1.71-61.66-10.05-14.87-12.6-7.94-38.29-17.82-58.94-9.63-20.14-21.15-38.15-21.15-63.23C357.38,125.72,358.59,126,359.39,126Z"/><path d="M359.39,127.48c6.72,0,13.36-1.51,20.09-1.46a25.52,25.52,0,0,1,17.32,6.69c9.26,8.37,16,19.19,23.74,28.85,4.66,5.8,9.42,11.53,13.64,17.65,4.34,6.3,8.1,13,11.94,19.66a371.37,371.37,0,0,1,21.54,42.2q2.28,5.42,4.29,10.93,1,2.81,2,5.64a6.82,6.82,0,0,1,.3.94v.18c0,.06-.09.15-.17.21-1.77,1.23-4.78.89-6.79.76a67.85,67.85,0,0,1-9.72-1.56c-11.54-2.43-23.56-1.5-35.26-2.24-10.39-.67-22.49-2.33-28.85-11.62-3.12-4.54-4.55-10-5.5-15.33-1.07-6-1.56-12.17-2.42-18.25a74.63,74.63,0,0,0-4.73-18.57C378.14,186,374.82,180,371.84,174c-6-12.3-11.32-25.11-12.61-38.89-.17-1.82-.28-3.64-.32-5.47a19.67,19.67,0,0,1,0-2.28c0,.12-.38.12-.13.14s.43,0,.65,0c1.93,0,1.93-3,0-3a3.2,3.2,0,0,0-2.93,1.06c-1,1.33-.58,3.43-.52,5A81.73,81.73,0,0,0,357.16,142a99.61,99.61,0,0,0,6.11,20.4c2.68,6.53,5.83,12.85,9,19.15s6.43,12.36,8.22,19.15c1.7,6.41,2.42,13,3.2,19.6.72,6,1.44,12.13,3.41,17.89a28.05,28.05,0,0,0,9.5,13.7c4.43,3.31,9.93,5,15.31,5.9,12.39,2.16,25,1.14,37.5,2.26,6.31.57,12.4,2.51,18.74,2.76,2.36.09,5.25.13,7.33-1.17,2.49-1.55,1.59-4,.81-6.29a290.84,290.84,0,0,0-20.26-45c-3.94-7.24-8.07-14.37-12.3-21.44-2-3.42-4-6.88-6.26-10.19-2.1-3.12-4.36-6.12-6.67-9.09-4.76-6.12-9.8-12-14.43-18.25-3.64-4.92-7.26-9.84-11.3-14.44-4.25-4.83-8.82-9.48-14.87-12-6.51-2.65-13.5-2-20.31-1.28a97.19,97.19,0,0,1-10.5.77A1.5,1.5,0,0,0,359.39,127.48Z"/><ellipse class="cls-6" cx="360.99" cy="138.65" rx="6.61" ry="7.94"/><path d="M313.38,57.72c-.5-1.88-2-3.07-3.16-4.51a17.22,17.22,0,0,1-2.67-4.53,18.29,18.29,0,0,1-1-10.47c.39-1.88-2.5-2.68-2.89-.79a21.1,21.1,0,0,0,.75,11.46,20.61,20.61,0,0,0,2.56,5,22.37,22.37,0,0,0,1.84,2.28,5.92,5.92,0,0,1,1.65,2.35,1.5,1.5,0,0,0,2.89-.8Z"/><path d="M406.25,58.23c-.3-1.73,2.13-3,3.24-3.92a12.91,12.91,0,0,0,3.42-4.07A13.63,13.63,0,0,0,414,40c-.56-1.85-3.45-1.06-2.89.8a10.62,10.62,0,0,1-1.61,9.27c-1.08,1.48-2.63,2.37-4,3.56a5.78,5.78,0,0,0-2.16,5.4,1.5,1.5,0,0,0,2.9-.8Z"/><path class="cls-7" d="M363.35,43.52c21.45,10,44.81,42.47,24.34,83.58,21.64-14.43,38-27.91,29.13-53.41,9.56-21.61,8.39-45.37,3-53.34-9.38,8.59-30.09,15.84-31.39,29.55Z"/><path class="cls-7" d="M377.46,238.36c-5.26-42.11-26.75-82.17-26.75-82.17s20-18,52.13,62.54c13.62,34.16,14.89,33.62,8.17,39.9s-19.26,6-23.82-2.54S377.46,238.36,377.46,238.36Z"/><path class="cls-2" d="M493.7,257.68c31.43,24.1,194.67,5.28,227.73,3-4.69-6.31-55.37-67.41-107.73-66C554.76,196.2,493.7,257.68,493.7,257.68Z"/><path class="cls-3" d="M670.62,75.15c4.32-11.54,9.65-26,5.9-44.4-2.17-10.67-6.18-18.89-14.12-26.34-.94,7.88-11.75,11.53-17.55,17-4.58,4.29-10.79,11.09-12.69,16.87-9.93-3.11-16.95-4.86-28.56-4.86-11.22,0-16.6,2.73-26.26,5.65-4-10.49-15.92-14.91-22.61-21.59-3.32-3.31-7.64-11-9.22-15.43-3.25,4-11.65,21.2-13.1,29.86-1.51,9.06-.88,29.86,4.89,40-6.61,8-4,25.36,0,32.75,8.66,15.87,21.2,20.2,41.4,27.42C561,199.6,538.44,274.34,572.93,277.62c30.31,2.89,29-20.47,45.18-18.76s12.94,15.87,32.75,15.87c16.13,0,23.08-14.51,23.08-35.07,0-30.64-14.57-65.19-36.07-108.67C662.4,125.22,679.46,95.82,670.62,75.15Z"/><path class="cls-4" d="M665.29,86a30.5,30.5,0,0,0-2.62-12.28c5.17-7.61,7.19-17.19,7.06-26.45-.14-10.57-2.84-20.91-5.51-31.12-.83,5.11-4.62,9.26-8.81,12.31s-8.92,5.31-13,8.53c-3.87,3.08-7.16,7.37-7.6,12.26a83.22,83.22,0,0,0-31.24-5.88,84.19,84.19,0,0,0-29.26,5.09c-.7-4.56-3.85-8.55-7.51-11.47-4.06-3.22-8.79-5.48-13-8.53s-8-7.2-8.8-12.31c-2.68,10.21-5.37,20.55-5.52,31.12-.12,8.51,1.59,17.3,5.88,24.57A31,31,0,0,0,541.91,86c0,18,16.14,33.38,39,39.64h0c-16.6,59.2-34,146.25-3.64,142.41s26-35.59,39-34.14,12.92,30.3,28.86,30.3c13,0,20.21-14.43,20.21-31.75,0-29.43-7.53-62.38-31.75-106.78h0C652.47,118.38,665.29,102,665.29,86Z"/><path d="M666.79,86a33.73,33.73,0,0,0-2.82-13v1.52c8.83-13.2,8.23-29.82,5.11-44.73-1-4.71-2.2-9.36-3.41-14-.36-1.36-2.63-1.5-2.9,0-1.43,8.07-9.24,12.27-15.6,16.19s-13,9.21-13.83,17.31l1.9-1.45A87,87,0,0,0,587,43.39a79.33,79.33,0,0,0-13,3.6l1.84,1c-1.32-7.83-8.13-12.73-14.44-16.59s-13.47-8-14.85-15.73c-.26-1.5-2.53-1.36-2.89,0-4.83,18.45-9.72,39.24.51,56.85V71.05a32.71,32.71,0,0,0-.15,29.57c4.19,8.4,11.57,14.93,19.63,19.53a74.1,74.1,0,0,0,16.88,6.91l-1-1.85c-1.33,3.76-2.16,7.79-3.18,11.64q-1.61,6.06-3.11,12.13-3.15,12.63-5.84,25.36a390.83,390.83,0,0,0-7.55,48.46,149.87,149.87,0,0,0-.47,20,56,56,0,0,0,2.58,15.36c1.27,3.68,3.24,7.26,6.54,9.49,3.79,2.56,8.3,2.18,12.56,1.28a31.78,31.78,0,0,0,16.74-9.24c3.64-3.88,6.19-8.54,8.51-13.28,1.68-3.45,3.24-7.53,6-9.93a7.39,7.39,0,0,1,1.55-.88,4.29,4.29,0,0,1,2.12-.23,8.35,8.35,0,0,1,5.22,2.78c3.78,3.94,5.72,9.53,8.16,14.32s5.54,10.09,10.79,12.26c6.12,2.53,13.34,0,17.77-4.55,5.62-5.8,7.88-14.19,8.64-22,.73-7.48.18-15.21-.57-22.66a180.87,180.87,0,0,0-3.84-22.88c-4.31-18.37-11.32-36-19.61-52.94q-3.66-7.47-7.66-14.78l-.89,2.2c13.75-5.34,26.18-15.92,31-30.2A34.68,34.68,0,0,0,666.79,86a1.5,1.5,0,0,0-3,0c-.07,13.31-8.82,25.13-19.47,32.37a56.23,56.23,0,0,1-11.18,5.87,1.54,1.54,0,0,0-.9,2.21c9.53,17.49,17.92,35.7,23.69,54.8a178.62,178.62,0,0,1,7.74,44.88c.3,8.06.1,16.18-2.87,23.8-2.4,6.11-7.12,12-14.09,12.71a11,11,0,0,1-7.32-1.64,17.89,17.89,0,0,1-5-5.54c-3-4.79-5-10.19-7.89-15-2.43-4-6-8.08-11.15-8-3.83,0-6.44,2.8-8.3,5.85-2.32,3.82-3.95,8-6.16,11.92a32.79,32.79,0,0,1-10.7,11.94,29.7,29.7,0,0,1-9,3.73,20.79,20.79,0,0,1-7.44.78,9.49,9.49,0,0,1-4-1.59,10.65,10.65,0,0,1-1.64-1.47,11.6,11.6,0,0,1-1.43-1.91c-2.24-3.61-3.22-8-3.84-12.23a99.74,99.74,0,0,1-.67-17.62c.53-15.29,2.91-30.51,5.76-45.53,3.14-16.55,7-33,11.34-49.24,1-3.63,1.75-7.42,3-11a1.52,1.52,0,0,0-1.05-1.85c-14.1-3.9-28.71-12.1-35.12-25.9a29.07,29.07,0,0,1-1.21-21.51,30.81,30.81,0,0,1,1.36-3.37,5,5,0,0,0,.58-1.37,2.75,2.75,0,0,0-.6-1.7A37.32,37.32,0,0,1,543.49,64a48.61,48.61,0,0,1-2.41-13.48c-.49-11.56,2.51-22.89,5.41-34H543.6c1.34,7.53,7.84,12.38,13.95,16.13,6.34,3.91,14,8.12,15.34,16.18a1.51,1.51,0,0,0,1.85,1.05,84.67,84.67,0,0,1,47.52-3,78.44,78.44,0,0,1,12.18,3.79c1,.41,1.81-.59,1.9-1.44.85-8,8.83-12.56,15-16.34s13-8.67,14.33-16.36h-2.9c4.6,17.56,9.69,37.86-.25,54.62-.65,1.09-1.63,2-1.14,3.31s.94,2.42,1.3,3.68A29.28,29.28,0,0,1,663.79,86,1.5,1.5,0,0,0,666.79,86Z"/><circle class="cls-5" cx="577.98" cy="78.76" r="7.93"/><circle class="cls-5" cx="634.26" cy="78.76" r="11.63"/><path d="M609.89,126c-13.87-1.76-25.29-4.17-37,4-6,4.22-14.62,13-18.76,18.76-7.34,10.28-16.72,23.38-23.23,34.11-14.61,24.08-28.58,48.7-37.24,75-1.44,4.39,8.72,4,17.57,1.91,18.39-4.25,47.79,1.71,61.66-10.05,14.87-12.6,13.64-40.7,17.82-58.94,5.81-25.41,21.14-38.15,21.14-63.23C611.89,125.72,610.68,126.09,609.89,126Z"/><path d="M609.89,124.48c-7.11-.91-14.34-2.23-21.54-1.59a34.56,34.56,0,0,0-18.78,7.76,95.85,95.85,0,0,0-14.34,14.28c-4.59,5.63-8.62,11.8-12.77,17.76-9.24,13.28-17.66,27.05-25.6,41.14-8.24,14.63-15.82,29.69-21.71,45.43q-1.08,2.91-2.09,5.84c-.45,1.31-1.23,2.84-.92,4.26.49,2.26,3,3,5,3.27,6.43.85,12.67-1.28,19-2.18,12.6-1.8,25.45-.53,38.07-2.2,5.7-.76,11.51-2.05,16.5-5a29.74,29.74,0,0,0,10.87-12.15c5.69-11.06,6.82-23.93,8.41-36.06a126.59,126.59,0,0,1,3.4-18.14A119.87,119.87,0,0,1,601,167.55c2.81-5.8,5.78-11.53,8.08-17.56a63.24,63.24,0,0,0,4.22-19.72c.07-1.46.42-3.46-.52-4.71-.74-1-1.8-1-2.92-1.08-1.92-.16-1.91,2.84,0,3,.29,0,.81.21.6-.07s-.1.64-.1.8c0,.49,0,1,0,1.45-.06,1.72-.19,3.44-.41,5.14a57.58,57.58,0,0,1-2,9.36A112.14,112.14,0,0,1,600.89,161c-2.83,5.78-5.69,11.55-8,17.57A93,93,0,0,0,588,197.08c-1.87,11.69-2.53,23.68-6.12,35-1.63,5.15-4,10.24-7.64,14.26A26.58,26.58,0,0,1,561,253.9c-11.79,3.12-24.34,2.17-36.41,2.79-2.91.15-5.81.38-8.69.77s-5.9,1.16-8.87,1.67a33.59,33.59,0,0,1-9.33.57,5.56,5.56,0,0,1-2.48-.72c-.12-.08-.18-.15-.19-.22a8.5,8.5,0,0,1,.45-1.55,281.63,281.63,0,0,1,19.55-43.91c7.42-13.76,15.33-27.35,24-40.35,4.22-6.3,8.59-12.49,13-18.66,1.84-2.58,3.61-5.2,5.63-7.64s4.32-4.92,6.64-7.23c4.57-4.54,9.58-9.21,15.68-11.59s12.87-2.35,19.41-1.67c3.5.37,7,.88,10.48,1.32C611.8,127.73,611.78,124.73,609.89,124.48Z"/><path d="M605.24,126c12.83,0,23.85-4.91,35.51,3.27,6,4.22,14.63,15.15,18.76,20.94,7.35,10.28,18.17,21.94,24.68,32.67,14.61,24.08,28.58,48.7,37.24,75,1.44,4.39-8.72,4-17.57,1.91-18.39-4.25-47.79,1.71-61.66-10.05-14.87-12.6-4.8-36.78-17.82-58.94-11.31-19.25-21.14-38.15-21.14-63.23C603.24,125.72,604.44,126,605.24,126Z"/><path d="M605.24,127.48c6.66,0,13.23-1.48,19.9-1.46a25.47,25.47,0,0,1,17.27,6.47c9.24,8.23,15.89,19,23.57,28.56,4.62,5.76,9.35,11.43,13.58,17.48s8,12.82,11.82,19.33a383.93,383.93,0,0,1,21.56,41.87q2.28,5.33,4.3,10.76c.7,1.87,1.37,3.74,2,5.63a20,20,0,0,1,.79,2.37c.05.28,0,.29,0,.37-.86,1.1-4.18,1-5.65.93a51.13,51.13,0,0,1-9.69-1.33c-11.44-2.57-23.31-1.82-34.94-2.44-10.21-.55-22.76-1.72-29.52-10.49-3.34-4.34-4.63-9.83-5.39-15.15-.88-6.24-1.13-12.55-2-18.79a60.7,60.7,0,0,0-6.11-19.77c-3.19-6-6.81-11.74-9.87-17.82-6.14-12.19-10.65-25.21-11.75-38.9-.15-1.82-.24-3.65-.28-5.49a22.19,22.19,0,0,1,0-2.28c0,.12-.38.12-.13.14s.43,0,.65,0c1.93,0,1.93-3,0-3a3.21,3.21,0,0,0-2.93,1.06c-1,1.33-.58,3.43-.53,5a96,96,0,0,0,1.05,11.35,98.78,98.78,0,0,0,5.57,20.68,159.89,159.89,0,0,0,8.94,19c3.5,6.42,7.7,12.53,10,19.54,2.15,6.63,2.93,13.55,3.56,20.46.55,6,1,12.3,2.92,18.1a24.8,24.8,0,0,0,9.84,13.1c4.64,3,10.19,4.49,15.61,5.31,12.37,1.88,24.92.86,37.33,2.15,6.26.65,12.3,2.66,18.63,2.65,2.18,0,5.08-.08,6.78-1.69,2.13-2,.41-5.07-.37-7.31a296.65,296.65,0,0,0-20.3-44.47c-4-7.23-8.1-14.36-12.34-21.43-2-3.32-3.94-6.66-6.12-9.86s-4.42-6.13-6.75-9.1c-4.68-6-9.62-11.77-14.13-17.89-3.62-4.92-7.26-9.81-11.31-14.39-4.22-4.78-8.78-9.34-14.81-11.74-6.45-2.58-13.38-2-20.12-1.21a97.19,97.19,0,0,1-10.5.77A1.5,1.5,0,0,0,605.24,127.48Z"/><ellipse class="cls-6" cx="606.84" cy="138.65" rx="6.61" ry="7.94"/><path d="M559.23,57.72c-.5-1.88-2-3.07-3.16-4.51a16.92,16.92,0,0,1-2.66-4.53,18.21,18.21,0,0,1-1-10.47c.39-1.88-2.5-2.68-2.89-.79a21.1,21.1,0,0,0,.75,11.46,20.61,20.61,0,0,0,2.56,5,22.37,22.37,0,0,0,1.84,2.28,5.92,5.92,0,0,1,1.65,2.35,1.5,1.5,0,0,0,2.89-.8Z"/><path d="M652.1,58.23c-.3-1.73,2.13-3,3.24-3.92a12.81,12.81,0,0,0,3.43-4.07A13.62,13.62,0,0,0,659.84,40c-.56-1.85-3.45-1.06-2.89.8a10.58,10.58,0,0,1-1.61,9.27c-1.08,1.48-2.63,2.37-4,3.56a5.77,5.77,0,0,0-2.15,5.4,1.5,1.5,0,0,0,1.84,1,1.53,1.53,0,0,0,1.05-1.84Z"/><path class="cls-7" d="M609.2,43.52c21.45,10,45.54,49.73,24.34,83.58,21.64-14.43,38-27.91,29.13-53.41,9.56-21.61,8.39-45.37,3-53.34-9.38,8.59-30.09,15.84-31.39,29.55Z"/><path class="cls-7" d="M623.31,238.36c-2.27-44.53-27.75-81.17-27.75-81.17s26.24-23.62,53.13,61.54c11.07,35.08,14.89,33.62,8.17,39.9s-19.26,6-23.82-2.54S623.31,238.36,623.31,238.36Z"/><path class="cls-2" d="M739.55,259.68c31.43,24.1,162.05,1.62,224.73,2-4.69-6.31-52.37-68.41-104.73-67C800.61,196.2,739.55,259.68,739.55,259.68Z"/><path class="cls-3" d="M917.47,76.15c4.33-11.54,9.65-21,5.9-39.4-2.17-10.67-8.18-25.89-16.12-33.34-.94,7.88-9.75,13.53-15.54,19-4.59,4.29-11.8,9.09-13.69,14.87a131.42,131.42,0,0,0-28.57-2.86c-11.22,0-16.6.73-26.26,3.65-4-10.49-14.92-14.91-21.61-21.59C798.26,13.12,793,4.41,791.37,0c-3.26,4-11.66,21.2-13.11,29.86-1.51,9.06-1.88,30.86,3.89,41-6.61,8-4,25.36,0,32.75C790.81,119.44,800,127.1,824.56,132c-17.75,67.61-40.27,141.35-5.78,144.63,30.31,2.89,27-18.47,43.18-16.76s13.94,13.87,33.75,13.87c16.14,0,24.09-13.51,24.09-34.07,0-30.64-14.58-65.19-36.08-108.67C909.25,130.71,926.31,96.82,917.47,76.15Z"/><path class="cls-4" d="M911.14,86a30.66,30.66,0,0,0-2.61-12.28c5.16-7.61,7.19-17.19,7.06-26.45-.15-10.57-2.84-20.91-5.52-31.12-.83,5.11-4.62,9.26-8.8,12.31s-8.92,5.31-13,8.53c-3.87,3.08-7.16,7.37-7.6,12.26a83.22,83.22,0,0,0-31.24-5.88,84.23,84.23,0,0,0-29.26,5.09c-.7-4.56-3.85-8.55-7.51-11.47-4.06-3.22-8.79-5.48-13-8.53s-8-7.2-8.8-12.31c-2.68,10.21-5.37,20.55-5.52,31.12-.12,8.51,1.59,17.3,5.88,24.57A31,31,0,0,0,787.76,86c0,18,16.14,33.38,39,39.64h0c-16.6,59.2-34,146.25-3.64,142.41s26-35.59,39-34.14,12.93,30.3,28.86,30.3c13,0,20.21-14.43,20.21-31.75,0-29.43-7.53-62.38-31.75-106.78h0C898.32,118.38,911.14,102,911.14,86Z"/><path d="M912.64,86a33.73,33.73,0,0,0-2.82-13v1.52c8.84-13.2,8.23-29.82,5.11-44.73-1-4.71-2.2-9.36-3.41-14-.36-1.36-2.63-1.5-2.9,0C907.19,23.79,899.38,28,893,31.91s-13,9.21-13.83,17.31l1.9-1.45a87,87,0,0,0-48.27-4.38,79.89,79.89,0,0,0-13,3.6l1.84,1c-1.32-7.83-8.12-12.73-14.44-16.59-6.16-3.76-13.47-8-14.84-15.73-.27-1.5-2.54-1.36-2.9,0-4.83,18.45-9.72,39.24.51,56.85V71.05a32.71,32.71,0,0,0-.15,29.57c4.19,8.4,11.57,14.93,19.63,19.53a74.28,74.28,0,0,0,16.88,6.91l-1-1.85C824,129,823.12,133,822.1,136.85Q820.49,142.91,819,149q-3.13,12.63-5.84,25.36c-3.35,16-6.22,32.16-7.55,48.46a149.87,149.87,0,0,0-.47,20,56,56,0,0,0,2.58,15.36c1.28,3.68,3.25,7.26,6.54,9.49,3.79,2.56,8.3,2.18,12.56,1.28a31.78,31.78,0,0,0,16.74-9.24c3.64-3.88,6.19-8.54,8.51-13.28,1.68-3.45,3.24-7.53,6.05-9.93a7.39,7.39,0,0,1,1.55-.88,4.29,4.29,0,0,1,2.12-.23,8.35,8.35,0,0,1,5.22,2.78c3.78,3.94,5.72,9.53,8.16,14.32s5.54,10.09,10.79,12.26c6.12,2.53,13.34,0,17.77-4.55,5.62-5.8,7.89-14.19,8.65-22,.72-7.48.17-15.21-.58-22.66A180.87,180.87,0,0,0,908,192.62c-4.31-18.37-11.32-36-19.6-52.94q-3.68-7.47-7.66-14.78l-.9,2.2c13.75-5.34,26.18-15.92,31-30.2A34.68,34.68,0,0,0,912.64,86a1.5,1.5,0,0,0-3,0c-.07,13.31-8.82,25.13-19.47,32.37A56.23,56.23,0,0,1,879,124.21a1.53,1.53,0,0,0-.89,2.21c9.52,17.49,17.91,35.7,23.68,54.8a178.62,178.62,0,0,1,7.74,44.88c.3,8.06.11,16.18-2.87,23.8-2.4,6.11-7.12,12-14.09,12.71a11,11,0,0,1-7.32-1.64,17.89,17.89,0,0,1-5-5.54c-3-4.79-5-10.19-7.88-15-2.44-4-6-8.08-11.16-8-3.83,0-6.44,2.8-8.29,5.85-2.33,3.82-4,8-6.16,11.92a32.9,32.9,0,0,1-10.71,11.94,29.75,29.75,0,0,1-8.94,3.73,20.87,20.87,0,0,1-7.45.78,9.41,9.41,0,0,1-4-1.59A9.79,9.79,0,0,1,814,263.5a10.57,10.57,0,0,1-1.43-1.91c-2.25-3.61-3.23-8-3.84-12.23a99.74,99.74,0,0,1-.68-17.62c.53-15.29,2.91-30.51,5.76-45.53,3.14-16.55,7-33,11.35-49.24,1-3.63,1.74-7.42,3-11a1.52,1.52,0,0,0-1-1.85c-14.1-3.9-28.71-12.1-35.12-25.9a29.07,29.07,0,0,1-1.21-21.51,30.81,30.81,0,0,1,1.36-3.37,4.71,4.71,0,0,0,.58-1.37,2.75,2.75,0,0,0-.6-1.7A37.32,37.32,0,0,1,789.34,64a48.61,48.61,0,0,1-2.41-13.48c-.48-11.56,2.51-22.89,5.42-34h-2.9c1.34,7.53,7.84,12.38,13.95,16.13,6.34,3.91,14,8.12,15.34,16.18a1.51,1.51,0,0,0,1.85,1.05,84.67,84.67,0,0,1,47.52-3,78.9,78.9,0,0,1,12.19,3.79c1,.41,1.8-.59,1.89-1.44.85-8,8.83-12.56,15-16.34s13-8.67,14.33-16.36h-2.9c4.6,17.56,9.69,37.86-.25,54.62-.65,1.09-1.62,2-1.14,3.31s.94,2.42,1.3,3.68A29.28,29.28,0,0,1,909.64,86,1.5,1.5,0,0,0,912.64,86Z"/><circle class="cls-5" cx="823.83" cy="78.76" r="6.74"/><circle class="cls-5" cx="880.11" cy="78.76" r="13.38"/><path d="M855.74,126c-13.87-1.76-25.29-4.17-37,4A96.63,96.63,0,0,0,800,148.75c-7.34,10.28-16.72,23.38-23.23,34.11-14.61,24.08-28.58,48.7-37.24,75-1.44,4.39,8.72,4,17.57,1.91,18.39-4.25,48.3,2.28,61.66-10.05,19.72-18.2,15.25-40.4,17.82-58.94,3.59-25.93,21.14-38.15,21.14-63.23C857.74,125.72,856.54,126.09,855.74,126Z"/><path d="M855.74,124.48c-7.11-.91-14.34-2.23-21.54-1.59a34.59,34.59,0,0,0-18.78,7.76A95.57,95.57,0,0,0,801,145.06c-4.59,5.66-8.62,11.84-12.78,17.81-9.29,13.35-17.74,27.2-25.71,41.37a322.72,322.72,0,0,0-21.64,45.45q-1.08,2.91-2.08,5.85c-.42,1.25-1.1,2.63-.74,4,.59,2.23,3.14,2.88,5.13,3.13,6.42.8,12.63-1.37,18.91-2.21,12.39-1.66,25-.32,37.4-1.84,5.59-.69,11.29-1.88,16.23-4.73,5.67-3.28,10.25-9,13.51-14.59,6.53-11.22,7.3-24.08,7.94-36.73a92.25,92.25,0,0,1,2.39-18.8,91.88,91.88,0,0,1,7.25-18.2c2.78-5.5,5.74-10.91,8.07-16.62a56.87,56.87,0,0,0,4.33-18.79c.07-1.42.41-3.36-.52-4.58-.75-1-1.79-1-2.92-1.08-1.92-.16-1.91,2.84,0,3,.3,0,.8.21.6-.07s-.1.61-.1.77q0,.69,0,1.38a46.39,46.39,0,0,1-.42,4.86,52.61,52.61,0,0,1-2.08,8.93,107.12,107.12,0,0,1-7.18,16.13A152.66,152.66,0,0,0,838.84,176a72.72,72.72,0,0,0-4.19,18.77c-1.07,11.7-.49,23.63-4.34,34.91a45.76,45.76,0,0,1-10.38,16.88,26.56,26.56,0,0,1-6.51,5.15,32.18,32.18,0,0,1-7.19,2.66c-11.55,2.9-23.78,1.89-35.57,2.39-2.89.13-5.77.32-8.64.7s-5.79,1.1-8.7,1.61a36.57,36.57,0,0,1-9.45.67,5.91,5.91,0,0,1-2.71-.71c-.15-.1-.2-.15-.22-.22s0-.13,0-.12a6.25,6.25,0,0,1,.32-1,279.13,279.13,0,0,1,19.59-44.14c7.4-13.76,15.31-27.37,24-40.36,4.21-6.31,8.58-12.51,13-18.68,1.84-2.58,3.62-5.22,5.64-7.67s4.31-4.92,6.62-7.23c4.6-4.6,9.66-9.33,15.81-11.73s12.87-2.35,19.41-1.67c3.5.37,7,.88,10.48,1.32C857.65,127.73,857.63,124.73,855.74,124.48Z"/><path d="M851.09,126c12.83,0,23.85-4.91,35.52,3.27,6,4.22,14.62,15.15,18.76,20.94,7.34,10.28,18.16,21.94,24.68,32.67,14.6,24.08,28.57,48.7,37.23,75,1.44,4.39-8.72,4-17.57,1.91-18.39-4.25-50.27,4.12-61.66-10.05-8.31-10.33-4.79-36.78-17.82-58.94-11.31-19.25-21.14-38.15-21.14-63.23C849.09,125.72,850.29,126,851.09,126Z"/><path d="M851.09,127.48c6.85,0,13.61-1.57,20.47-1.45A25.69,25.69,0,0,1,889,133.14,110.31,110.31,0,0,1,901.17,147c4,5.25,7.89,10.58,12,15.73,4.73,5.87,9.54,11.7,13.71,18,4.36,6.57,8.26,13.5,12.19,20.34a352,352,0,0,1,21.48,43q2.25,5.55,4.21,11.2c.3.87.6,1.74.89,2.61.16.51.29.81.18,1,0-.05-.11.1-.28.2a4.37,4.37,0,0,1-1.27.45c-2.74.64-5.85.26-8.61-.11-3-.41-5.9-1.22-8.88-1.66-11.15-1.65-22.51-.38-33.72-.84-8.94-.36-20.58-1.53-25.36-10.33-2.33-4.29-3.18-9.36-4-14.11-1.11-6.28-2-12.6-3.39-18.83a85.59,85.59,0,0,0-6.94-20.16c-3.17-6.26-7-12.17-10.21-18.42-6.37-12.44-11.11-25.73-12.27-39.74-.16-1.82-.25-3.65-.3-5.48a23.8,23.8,0,0,1,0-2.51c0,.06-.39.19-.13.14a4.73,4.73,0,0,1,.65,0c1.93,0,1.93-3,0-3a3.21,3.21,0,0,0-2.92,1.06c-1,1.36-.58,3.61-.53,5.19a94.89,94.89,0,0,0,1.1,11.53,100.49,100.49,0,0,0,5.87,21.19,167.76,167.76,0,0,0,9.25,19.26c3.65,6.6,7.71,12.9,10.26,20a123.7,123.7,0,0,1,5.07,20.73c1,5.95,1.77,12,3.38,17.85,1.25,4.53,3.16,8.89,6.86,11.94,4,3.27,9,4.87,14,5.7,11.73,1.95,23.7.59,35.51,1.07a64.69,64.69,0,0,1,8.1.75c3.23.55,6.39,1.36,9.66,1.73s13.26,1.32,12.16-4.56a37.59,37.59,0,0,0-1.75-5.25q-1.08-3-2.25-6-2.24-5.76-4.75-11.42c-3.37-7.63-7.1-15.1-11-22.45s-8.22-14.82-12.55-22.1a197.17,197.17,0,0,0-13-19.73c-4.83-6.28-10-12.3-14.74-18.62-3.78-5-7.42-10.11-11.55-14.86s-8.79-9.71-14.81-12.28c-6.62-2.82-13.68-2.3-20.66-1.53a98.36,98.36,0,0,1-10.7.79A1.5,1.5,0,0,0,851.09,127.48Z"/><ellipse class="cls-6" cx="852.69" cy="138.65" rx="6.61" ry="7.94"/><path d="M805.09,57.72c-.51-1.88-2-3.07-3.16-4.51a17,17,0,0,1-2.67-4.53,18.21,18.21,0,0,1-1-10.47c.39-1.88-2.5-2.68-2.89-.79a21.19,21.19,0,0,0,.75,11.46,21,21,0,0,0,2.56,5,22.37,22.37,0,0,0,1.84,2.28,5.92,5.92,0,0,1,1.65,2.35,1.51,1.51,0,0,0,2.9-.8Z"/><path d="M898,58.23c-.3-1.73,2.13-3,3.24-3.92a12.81,12.81,0,0,0,3.43-4.07A13.58,13.58,0,0,0,905.69,40c-.56-1.85-3.45-1.06-2.89.8a10.58,10.58,0,0,1-1.61,9.27c-1.08,1.48-2.62,2.37-4,3.56a5.77,5.77,0,0,0-2.15,5.4,1.5,1.5,0,0,0,2.89-.8Z"/><path class="cls-7" d="M855.05,43.52c22.21,14.6,41.38,30.2,24.34,83.58,21.65-14.43,38-27.91,29.14-53.41,9.55-21.61,8.38-45.37,3-53.34-9.38,8.59-30.08,15.84-31.39,29.55Z"/><path class="cls-7" d="M869.16,238.36c9.08-27.24-27.74-81.17-27.74-81.17s26.23-23.62,53.12,61.54c11.08,35.08,14.89,33.62,8.17,39.9s-19.26,6-23.81-2.54S869.16,238.36,869.16,238.36Z"/></g></g></svg>